<?xml version="1.0" encoding="utf-8"?>
<!-- Generator: Adobe Illustrator 23.0.6, SVG Export Plug-In . SVG Version: 6.00 Build 0)  -->
<svg version="1.1" id="Capa_1" xmlns="http://www.w3.org/2000/svg" xmlns:xlink="http://www.w3.org/1999/xlink" x="0px" y="0px"
	 viewBox="0 0 276.7 276.7" style="enable-background:new 0 0 276.7 276.7;" xml:space="preserve">
<style type="text/css">
	.st0{fill:#FFFFFF;}
</style>
<g>
	<path class="st0" d="M138.4,0C62.1,0,0,62.1,0,138.4s62.1,138.4,138.4,138.4s138.4-62.1,138.4-138.4S214.6,0,138.4,0z M138.4,258.7
		C72,258.7,18,204.7,18,138.4S72,18,138.4,18s120.4,54,120.4,120.4S204.7,258.7,138.4,258.7z"/>
	<path class="st0" d="M194.8,160.9c-4.2-2.7-9.8-1.5-12.4,2.7c-8.7,13.6-23.5,21.7-39.6,21.7c-25.9,0-47-21.1-47-47s21.1-47,47-47
		c15.6,0,30.2,7.7,39,20.7c2.8,4.1,8.4,5.2,12.5,2.4c4.1-2.8,5.2-8.4,2.4-12.5c-12.1-17.9-32.3-28.6-53.9-28.6
		c-35.8,0-65,29.2-65,65s29.2,65,65,65c22.3,0,42.8-11.2,54.8-30C200.2,169.1,199,163.6,194.8,160.9z"/>
</g>
</svg>
