<?xml version="1.0" encoding="utf-8"?>
<!-- Generator: Adobe Illustrator 21.1.0, SVG Export Plug-In . SVG Version: 6.00 Build 0)  -->
<svg version="1.1" id="Layer_1" xmlns="http://www.w3.org/2000/svg" xmlns:xlink="http://www.w3.org/1999/xlink" x="0px" y="0px"
	 viewBox="0 0 2048 436" style="enable-background:new 0 0 2048 436;" xml:space="preserve">
<style type="text/css">
	.st0{fill:#006551;}
	.st1{fill:#231F20;}
</style>
<g>
	<path class="st0" d="M1816,306.2h46.5v-0.3H1963v-46.2h-100.5v-46.5h74.9v-46.5h-74.9v-44.1H1963V76.1h-147V306.2z M1616.1,257
		V125.3h33.2c36.5,0,66.1,29.6,66.1,65.8s-29.6,65.8-66.1,65.8H1616.1z M1566.9,306.2h82.4c63.7,0,115.3-51.6,115.3-115
		s-51.6-115-115.3-115h-82.4V306.2z M1398.2,175.8v-53.4h43.5c13.9,0,25.1,11.2,25.1,25.1v3.3c0,13.9-11.2,25.1-25.1,25.1H1398.2z
		 M1351.7,306.2h46.5V222h36.5l33.5,84.2h50.4l-38.6-95.4c19.9-12.7,33.2-34.7,33.2-60.1v-3.3c0-39.6-32-71.5-71.5-71.5h-90V306.2z
		 M1150.3,306.2h46.5v-0.3h100.5v-46.2h-100.5v-46.5h74.9v-46.5h-74.9v-44.1h100.5V76.1h-147V306.2z M964.6,305.9h60.7L1102,76.1
		h-48.9l-58.3,174.5l-58-174.5h-49.2L964.6,305.9z"/>
	<path class="st1" d="M725.4,174.5c10.1-7.8,22.6-11.7,37.4-11.7c13.7,0,25.2,4,34.6,12.1c9.4,8.1,14.9,18.7,16.6,32H705.3
		C708.6,193.1,715.2,182.3,725.4,174.5 M816.7,228.7h2.5c11.6,0,18.7-1.1,21.3-3.2c2.6-2.1,3.9-6.3,3.9-12.5
		c0-20.3-7.7-37.5-23.2-51.7c-15.5-14.2-34.9-21.4-58.4-21.4c-25.9,0-47,7.6-63.1,22.9c-16.1,15.2-24.2,35.2-24.2,59.8
		c0,24.1,7.6,43.5,22.9,58.2c15.2,14.6,35.6,21.9,60.9,21.9c11.7,0,23.5-1.4,35.3-4.3c11.8-2.9,23.3-7,34.5-12.4
		c5.1-2.5,8.9-5.1,11.2-7.8c2.3-2.7,3.5-5.6,3.5-8.8c0-3.1-1.1-5.7-3.3-7.8c-2.2-2.1-5-3.2-8.3-3.2c-3.2,0-12.5,3.5-27.9,10.4
		c-15.4,6.9-29.5,10.4-42.6,10.4c-17.2,0-30.8-4.4-40.8-13.1c-10-8.8-15.4-21.2-16.3-37.3H816.7z M490.2,275
		c-7.6,0-12.7,0.8-15.3,2.4c-2.6,1.6-3.9,4.6-3.9,9.1c0,4.1,1.1,7.2,3.4,9.1c2.3,2,5.7,2.9,10.3,2.9h9h30.4c7.8,0,12.7-0.8,14.7-2.5
		c2-1.7,3-4.8,3-9.5c0-4.3-1.2-7.3-3.5-9c-2.3-1.7-6.8-2.5-13.5-2.5h-5.8v-69.4c0-11.3,4.4-20.9,13-28.5
		c8.7-7.7,18.7-11.5,30.1-11.5c11.3,0,19.8,3.4,25.7,10.3c5.9,6.8,8.9,16.8,8.9,29.8V275h-5.9c-6.5,0-10.9,0.8-13.3,2.5
		c-2.4,1.7-3.5,4.7-3.5,9c0,4.7,1,7.8,3,9.5s6.6,2.5,13.7,2.5h37c6.7,0,11.3-0.9,14-2.8c2.6-1.8,3.9-4.9,3.9-9.3
		c0-4-1.2-6.9-3.7-8.8c-2.5-1.8-6.5-2.8-12.1-2.8h-7.9v-75.6c0-18.5-4.8-32.9-14.4-43.4c-9.6-10.5-22.8-15.7-39.6-15.7
		c-8.6,0-16.8,1.8-24.8,5.4c-8,3.6-16,9.2-24.1,16.8v-11.3c0-2.1-0.8-3.8-2.5-5c-1.7-1.2-4-1.8-7-1.8h-16h-7.8
		c-5.2,0-9,0.9-11.3,2.8c-2.3,1.8-3.5,4.8-3.5,8.9c0,4.5,1.4,7.6,4.3,9.3c2.8,1.8,8,2.7,15.6,2.7h3.2v107H490.2z M390.4,287.5
		c0.7,3.6,2,6.3,4,8.2c2,1.9,4.6,2.8,7.7,2.8h26.2c4.5,0,7.8-1,10-3c2.2-2,3.3-5,3.3-9c0-4.3-1.3-7.3-4-9c-2.7-1.7-8-2.5-15.8-2.5
		h-8.2v-75.6c0-19.5-5-34.2-15-44.1c-10-10-24.8-14.9-44.4-14.9c-19.1,0-34.9,2.3-47.1,6.8c-12.3,4.6-18.4,10.1-18.4,16.7
		c0,4.1,1.1,7.5,3.2,10.1c2.1,2.6,4.8,3.9,8,3.9c3.5,0,10.5-2.3,21.2-7c10.7-4.7,20.4-7,29-7c12.9,0,22.4,3,28.5,9.2
		c6.1,6.1,9.2,15.6,9.2,28.4v1.2c-6.9-1.8-13.6-3.1-20.2-3.9c-6.6-0.8-13.1-1.3-19.5-1.3c-24.5,0-43.5,4.8-57,14.5
		c-13.5,9.7-20.3,23.3-20.3,40.9c0,14.8,5.1,26.8,15.3,36c10.2,9.2,23.6,13.9,40.1,13.9c11.4,0,22.4-2.2,33.1-6.5
		c10.7-4.3,20.7-10.6,29.8-18.9L390.4,287.5z M387.8,242.8c0,8-6,15.7-18.1,23.1c-12.1,7.4-25.2,11.1-39.3,11.1
		c-9.6,0-17.4-2.5-23.6-7.3c-6.2-4.9-9.3-11.1-9.3-18.7c0-9.8,4.9-17.6,14.8-23.4c9.9-5.8,23.4-8.7,40.6-8.7
		c5.7,0,11.4,0.5,17.1,1.4c5.7,0.9,11.6,2.4,17.8,4.4V242.8z M196.8,151.1c0-2.1-0.9-3.8-2.6-5c-1.7-1.2-4.1-1.8-7-1.8H95.3
		c-4.5,0-7.8,1-10,2.9c-2.2,1.9-3.3,4.8-3.3,8.7c0,4.5,1.4,7.7,4.1,9.4c2.7,1.7,9.5,2.6,20.3,2.6h65.3v120.1
		c0,18.5-3.5,31.5-10.4,39c-6.9,7.5-18.5,11.3-34.7,11.3c-3.2,0-8-0.4-14.3-1.2c-6.3-0.8-11-1.3-14-1.3c-3.9,0-7.3,1.3-10.1,3.9
		c-2.8,2.6-4.3,5.6-4.3,9.1c0,5.3,2.9,9.3,8.8,11.9c5.9,2.6,15.1,3.8,27.7,3.8c15.1,0,28.3-2.1,39.5-6.4c11.2-4.3,20-10.5,26.3-18.8
		c3.8-4.9,6.5-11,8.1-18.4c1.7-7.3,2.5-18.1,2.5-32.2V151.1z M155.1,109.3c2.2,2.2,6.9,3.3,14.2,3.3c7.1,0,11.7-1.1,13.7-3.3
		c2-2.2,3-8.2,3-17.9c0-9.9-1.1-16.1-3.3-18.7c-2.2-2.6-6.6-3.8-13.4-3.8c-7.2,0-12,1.6-14.2,4.8c-2.2,3.2-3.3,10.7-3.3,22.6
		C151.8,102.8,152.9,107.2,155.1,109.3"/>
</g>
</svg>
