<?xml version="1.0" encoding="utf-8"?>
<!-- Generator: Adobe Illustrator 23.0.6, SVG Export Plug-In . SVG Version: 6.00 Build 0)  -->
<svg version="1.1" id="Capa_1" xmlns="http://www.w3.org/2000/svg" xmlns:xlink="http://www.w3.org/1999/xlink" x="0px" y="0px"
	 viewBox="0 0 512 512" style="enable-background:new 0 0 512 512;" xml:space="preserve">
<style type="text/css">
	.st0{fill:#FFFFFF;}
</style>
<g>
	<path class="st0" d="M256,416.1c64-31.5,105-97,105-168.9V129L256,94l-105,35v118.2C151,319.1,192,384.6,256,416.1z M200.4,246.4
		c5.9-5.9,15.4-5.9,21.2,0l19.4,19.4l49.4-49.4c5.9-5.9,15.4-5.9,21.2,0c5.9,5.9,5.9,15.4,0,21.2l-60,60c-2.9,2.9-6.8,4.4-10.6,4.4
		s-7.7-1.5-10.6-4.4l-30-30C194.5,261.7,194.5,252.3,200.4,246.4z"/>
	<path class="st0" d="M251.3,511.2c1.5,0.5,3.1,0.8,4.7,0.8c1.6,0,3.2-0.3,4.7-0.8c113.8-37.9,190.3-144,190.3-264V75
		c0-6.5-4.1-12.2-10.3-14.2l-180-60c-3.1-1-6.4-1-9.5,0l-180,60C65.1,62.8,61,68.5,61,75v172.3C61,367.2,137.5,473.3,251.3,511.2z
		 M121,118.2c0-6.5,4.1-12.2,10.3-14.2l120-40c3.1-1,6.4-1,9.5,0l120,40c6.1,2,10.3,7.8,10.3,14.2v129
		c0,85.9-50.6,164.1-128.9,199.1c-2,0.9-4,1.3-6.1,1.3s-4.2-0.4-6.1-1.3c-78.4-35-129-113.1-129-199V118.2z"/>
</g>
</svg>
